<?xml version="1.0" encoding="UTF-8" standalone="no"?>
<svg
   xmlns:dc="http://purl.org/dc/elements/1.1/"
   xmlns:cc="http://creativecommons.org/ns#"
   xmlns:rdf="http://www.w3.org/1999/02/22-rdf-syntax-ns#"
   xmlns:svg="http://www.w3.org/2000/svg"
   xmlns="http://www.w3.org/2000/svg"
   xmlns:sodipodi="http://sodipodi.sourceforge.net/DTD/sodipodi-0.dtd"
   xmlns:inkscape="http://www.inkscape.org/namespaces/inkscape"
   version="1.0"
   width="197.24695mm"
   height="85.957512mm"
   id="svg870"
   sodipodi:docname="compomics_logo_2019.svg"
   inkscape:version="0.92.4 (5da689c313, 2019-01-14)">
  <metadata
     id="metadata874">
    <rdf:RDF>
      <cc:Work
         rdf:about="">
        <dc:format>image/svg+xml</dc:format>
        <dc:type
           rdf:resource="http://purl.org/dc/dcmitype/StillImage" />
        <dc:title></dc:title>
      </cc:Work>
    </rdf:RDF>
  </metadata>
  <sodipodi:namedview
     pagecolor="#ffffff"
     bordercolor="#666666"
     borderopacity="1"
     objecttolerance="10"
     gridtolerance="10"
     guidetolerance="10"
     inkscape:pageopacity="0"
     inkscape:pageshadow="2"
     inkscape:window-width="3378"
     inkscape:window-height="1417"
     id="namedview872"
     showgrid="false"
     fit-margin-top="5"
     fit-margin-right="5"
     fit-margin-bottom="5"
     fit-margin-left="5"
     inkscape:zoom="5.12"
     inkscape:cx="214.1541"
     inkscape:cy="203.23606"
     inkscape:window-x="1974"
     inkscape:window-y="-8"
     inkscape:window-maximized="1"
     inkscape:current-layer="svg870" />
  <defs
     id="defs816">
    <pattern
       id="EMFhbasepattern"
       patternUnits="userSpaceOnUse"
       width="6"
       height="6"
       x="0"
       y="0" />
  </defs>
  <g
     aria-label="C"
     transform="translate(8.6505978,159.92847)"
     style="font-style:normal;font-variant:normal;font-weight:400;font-size:173.4375px;line-height:125%;font-family:'Open Sans Semibold';text-align:start;letter-spacing:0px;word-spacing:0px;text-anchor:start;fill:#000000;fill-opacity:1;stroke:none"
     id="text830">
    <path
       d="m 69.019318,-108.22906 q -17.445374,0 -27.438355,12.364192 -9.992981,12.364197 -9.992981,34.12857 0,22.78061 9.56955,34.467316 9.654236,11.686707 27.861786,11.686707 7.875824,0 15.24353,-1.524353 7.367706,-1.60904 15.328216,-4.064942 v 17.3606874 q -14.56604,5.5046082 -33.027648,5.5046082 -27.184296,0 -41.750336,-16.4291386 -14.56604,-16.513824 -14.56604,-47.170257 0,-19.308472 7.028961,-33.789826 7.113647,-14.481354 20.49408,-22.187804 13.380432,-7.70645 31.418609,-7.70645 18.969727,0 35.06012,7.96051 l -7.28302,16.85257 q -6.266785,-2.96402 -13.295746,-5.16587 -6.944275,-2.28652 -14.650726,-2.28652 z"
       style="font-style:normal;font-variant:normal;font-weight:400;font-size:173.4375px;font-family:'Open Sans Semibold';fill:#3b3838"
       id="path4603"
       inkscape:connector-curvature="0" />
  </g>
  <g
     aria-label="o"
     transform="translate(118.52646,159.92847)"
     style="font-style:normal;font-variant:normal;font-weight:400;font-size:173.4375px;line-height:125%;font-family:'Open Sans Semibold';text-align:start;letter-spacing:0px;word-spacing:0px;text-anchor:start;fill:#000000;fill-opacity:1;stroke:none"
     id="text836">
    <path
       d="m 97.304535,-47.000885 q 0,22.949982 -11.771393,35.822296 -11.771393,12.8723146 -32.77359,12.8723146 -13.126373,0 -23.204041,-5.9280396 -10.077667,-5.92804 -15.497589,-17.021942 -5.4199215,-11.093903 -5.4199215,-25.744629 0,-22.780609 11.6867065,-35.568237 11.686707,-12.787628 32.942963,-12.787628 20.324707,0 32.180786,13.126373 11.856079,13.041687 11.856079,35.229492 z m -68.172455,0 q 0,32.434845 23.966217,32.434845 23.712158,0 23.712158,-32.434845 0,-32.0961 -23.88153,-32.0961 -12.53357,0 -18.20755,8.299256 -5.589295,8.299255 -5.589295,23.796844 z"
       style="font-style:normal;font-variant:normal;font-weight:400;font-size:173.4375px;font-family:'Open Sans Semibold';fill:#d63729"
       id="path4597"
       inkscape:connector-curvature="0" />
  </g>
  <g
     aria-label="mp"
     transform="translate(224.55828,159.92847)"
     style="font-style:normal;font-variant:normal;font-weight:400;font-size:173.4375px;line-height:125%;font-family:'Open Sans Semibold';text-align:start;letter-spacing:0px;word-spacing:0px;text-anchor:start;fill:#000000;fill-opacity:1;stroke:none"
     id="text842">
    <path
       d="M 93.154907,0 H 73.168945 v -57.756042 q 0,-10.755158 -4.064941,-16.005707 -4.064942,-5.335236 -12.702942,-5.335236 -11.517334,0 -16.937256,7.537079 -5.335235,7.452393 -5.335235,24.897766 V 0 H 14.227295 V -93.663025 H 29.80957 l 2.794648,12.279511 h 1.016235 q 3.895569,-6.690216 11.263275,-10.331726 7.452393,-3.64151 16.344452,-3.64151 21.595001,0 28.623962,14.735412 h 1.354981 q 4.149627,-6.944275 11.686707,-10.839844 7.53708,-3.895568 17.276,-3.895568 16.76788,0 24.38965,8.468627 7.70645,8.468628 7.70645,25.829316 V 0 h -19.90128 v -57.756042 q 0,-10.755158 -4.14962,-16.005707 -4.06494,-5.335236 -12.70295,-5.335236 -11.60202,0 -17.021937,7.28302 -5.335236,7.198334 -5.335236,22.187805 z"
       style="font-style:normal;font-variant:normal;font-weight:400;font-size:173.4375px;font-family:'Open Sans Semibold';fill:#3b3838"
       id="path889"
       inkscape:connector-curvature="0" />
    <path
       d="m 227.72141,1.6937256 c -11.85608,0 -21.05866,-4.2625429 -27.60773,-12.7876286 h -1.18561 c 0.79041,7.904053 1.18561,12.7029423 1.18561,14.3966679 l -0.15462,30.4152631 -19.74666,-6.7e-4 V -93.663025 h 16.0904 c 0.45166,1.750183 1.38321,5.92804 2.79464,12.533569 h 1.01624 c 6.21033,-9.484863 15.52582,-14.227294 27.94647,-14.227294 11.68671,0 20.77637,4.234314 27.26898,12.702941 6.54907,8.468628 9.82361,20.352936 9.82361,35.652924 0,15.299988 -3.33099,27.240753 -9.99298,35.822296 -6.60553,8.5815431 -15.75165,12.8723146 -27.43835,12.8723146 z m -4.82712,-80.7907106 c -7.90405,0 -13.69095,2.314758 -17.36069,6.944275 -3.61328,4.629517 -5.41992,12.025452 -5.41992,22.187805 v 2.96402 c 0,11.404419 1.80664,19.675445 5.41992,24.81308 3.61328,5.081177 9.51309,7.621765 17.69943,7.621765 6.88782,0 12.19483,-2.822876 15.92102,-8.468628 3.7262,-5.645752 5.5893,-13.690949 5.5893,-24.13559 0,-10.501099 -1.8631,-18.43338 -5.5893,-23.796844 -3.66974,-5.419922 -9.08966,-8.129883 -16.25976,-8.129883 z"
       style="font-style:normal;font-variant:normal;font-weight:400;font-size:173.4375px;font-family:'Open Sans Semibold';fill:#3b3838"
       id="path891"
       inkscape:connector-curvature="0"
       sodipodi:nodetypes="sccsccccccscscsscsscssscs" />
  </g>
  <g
     aria-label="o"
     transform="translate(118.37185,304.28742)"
     style="font-style:normal;font-variant:normal;font-weight:400;font-size:173.4375px;line-height:125%;font-family:'Open Sans Semibold';text-align:start;letter-spacing:0px;word-spacing:0px;text-anchor:start;fill:#000000;fill-opacity:1;stroke:none"
     id="text848">
    <path
       d="m 97.304535,-47.000885 q 0,22.949982 -11.771393,35.822296 -11.771393,12.8723146 -32.77359,12.8723146 -13.126373,0 -23.204041,-5.9280396 -10.077667,-5.92804 -15.497589,-17.021942 -5.4199215,-11.093903 -5.4199215,-25.744629 0,-22.780609 11.6867065,-35.568237 11.686707,-12.787628 32.942963,-12.787628 20.324707,0 32.180786,13.126373 11.856079,13.041687 11.856079,35.229492 z m -68.172455,0 q 0,32.434845 23.966217,32.434845 23.712158,0 23.712158,-32.434845 0,-32.0961 -23.88153,-32.0961 -12.53357,0 -18.20755,8.299256 -5.589295,8.299255 -5.589295,23.796844 z"
       style="font-style:normal;font-variant:normal;font-weight:400;font-size:173.4375px;font-family:'Open Sans Semibold';fill:#276ba6"
       id="path4600"
       inkscape:connector-curvature="0" />
  </g>
  <g
     aria-label="mics"
     transform="translate(224.40366,304.28742)"
     style="font-style:normal;font-variant:normal;font-weight:400;font-size:173.4375px;line-height:125%;font-family:'Open Sans Semibold';text-align:start;letter-spacing:0px;word-spacing:0px;text-anchor:start;fill:#000000;fill-opacity:1;stroke:none"
     id="text854">
    <path
       d="M 93.154907,0 H 73.168945 v -57.756042 q 0,-10.755158 -4.064941,-16.005707 -4.064942,-5.335236 -12.702942,-5.335236 -11.517334,0 -16.937256,7.537079 -5.335235,7.452393 -5.335235,24.897766 V 0 H 14.227295 V -93.663025 H 29.80957 l 2.794648,12.279511 h 1.016235 q 3.895569,-6.690216 11.263275,-10.331726 7.452393,-3.64151 16.344452,-3.64151 21.595001,0 28.623962,14.735412 h 1.354981 q 4.149627,-6.944275 11.686707,-10.839844 7.53708,-3.895568 17.276,-3.895568 16.76788,0 24.38965,8.468627 7.70645,8.468628 7.70645,25.829316 V 0 h -19.90128 v -57.756042 q 0,-10.755158 -4.14962,-16.005707 -4.06494,-5.335236 -12.70295,-5.335236 -11.60202,0 -17.021937,7.28302 -5.335236,7.198334 -5.335236,22.187805 z"
       style="font-style:normal;font-variant:normal;font-weight:400;font-size:173.4375px;font-family:'Open Sans Semibold';fill:#3b3838"
       id="path876"
       inkscape:connector-curvature="0" />
    <path
       style="font-style:normal;font-variant:normal;font-weight:400;font-size:173.4375px;font-family:'Open Sans Semibold';fill:#3b3838"
       d="M 200.11368,0 H 180.2124 v -93.663025 h 19.90128 z"
       id="path887"
       inkscape:connector-curvature="0" />
    <path
       d="m 266.42303,1.6937256 q -21.25625,0 -32.35015,-12.3641966 -11.00922,-12.448883 -11.00922,-35.652924 0,-23.627472 11.51733,-36.330414 11.60202,-12.702941 33.45108,-12.702941 14.8201,0 26.67618,5.504608 l -6.01272,16.005706 q -12.61826,-4.911804 -20.83283,-4.911804 -24.30496,0 -24.30496,32.265473 0,15.751648 6.01273,23.712158 6.09741,7.875824 17.78411,7.875824 13.29575,0 25.15183,-6.60553 v 17.3606873 q -5.33524,3.1333923 -11.43265,4.48837282 -6.01272,1.35498048 -14.65073,1.35498048 z"
       style="font-style:normal;font-variant:normal;font-weight:400;font-size:173.4375px;font-family:'Open Sans Semibold';fill:#3b3838"
       id="path880"
       inkscape:connector-curvature="0" />
    <path
       d="m 377.61612,-26.676178 q 0,13.719177 -9.99298,21.0868836 -9.99298,7.28302 -28.62396,7.28302 -18.71567,0 -30.06363,-5.6739807 V -21.17157 q 16.51382,7.621765 30.74112,7.621765 18.37692,0 18.37692,-11.093902 0,-3.556824 -2.03247,-5.92804 -2.03247,-2.371216 -6.69022,-4.911804 -4.65774,-2.540588 -12.957,-5.758667 -16.17508,-6.266785 -21.93374,-12.533569 -5.67399,-6.266785 -5.67399,-16.259766 0,-12.025452 9.65424,-18.630981 9.73892,-6.690216 26.42212,-6.690216 16.51382,0 31.24924,6.690216 l -6.43616,14.989471 q -15.15884,-6.266785 -25.49057,-6.266785 -15.75165,0 -15.75165,8.976746 0,4.403686 4.06494,7.452393 4.14963,3.048706 17.95349,8.383941 11.60202,4.488373 16.85257,8.214569 5.25055,3.726197 7.79114,8.638001 2.54059,4.827118 2.54059,11.60202 z"
       style="font-style:normal;font-variant:normal;font-weight:400;font-size:173.4375px;font-family:'Open Sans Semibold';fill:#3b3838"
       id="path882"
       inkscape:connector-curvature="0" />
  </g>
  <path
     style="fill:#d63729;fill-opacity:1;fill-rule:evenodd;stroke:none"
     d="m 643.79534,60.3013 c 0,-22.864111 18.53955,-41.403662 41.40366,-41.403662 22.90415,0 41.40366,18.539551 41.40366,41.403662 0,22.904158 -18.49951,41.40366 -41.40366,41.40366 -22.86411,0 -41.40366,-18.499502 -41.40366,-41.40366 z"
     id="path856"
     inkscape:connector-curvature="0" />
  <path
     style="fill:#276ba6;fill-opacity:1;fill-rule:evenodd;stroke:none"
     d="m 574.12187,86.969418 c 0,-22.984233 18.65967,-41.64391 41.64391,-41.64391 23.02428,0 41.64391,18.659677 41.64391,41.64391 0,23.024282 -18.61963,41.643922 -41.64391,41.643922 -22.98424,0 -41.64391,-18.61964 -41.64391,-41.643922 z"
     id="path858"
     inkscape:connector-curvature="0" />
  <path
     style="fill:#d63729;fill-opacity:1;fill-rule:evenodd;stroke:none"
     d="m 507.17126,62.223327 c 0,-16.497397 13.41415,-29.8715 29.95159,-29.8715 16.57748,0 29.95158,13.374103 29.95158,29.8715 0,16.497401 -13.3741,29.871501 -29.95158,29.871501 -16.53744,0 -29.95159,-13.3741 -29.95159,-29.871501 z"
     id="path860"
     inkscape:connector-curvature="0" />
  <path
     style="fill:#d63729;fill-opacity:1;fill-rule:evenodd;stroke:none"
     d="m 550.09653,140.54592 c 0,-14.01478 11.37199,-25.38677 25.38677,-25.38677 14.05482,0 25.38677,11.37199 25.38677,25.38677 0,14.05482 -11.33195,25.38677 -25.38677,25.38677 -14.01478,0 -25.38677,-11.33195 -25.38677,-25.38677 z"
     id="path862"
     inkscape:connector-curvature="0" />
</svg>
